# xmcd CD database file
#
# Track frame offsets:
#	150
#	46290
#	82615
#	115112
#	147097
#	189167
#	220620
#	244455
#	281922
#
# Disc length: 4188 seconds
#
# Revision: 0
# Processed by: cddbd v1.5.2PL0 Copyright (c) Steve Scherf et al.
# Submitted via: CDex 2.07
#
DISCID=76105a09
DTITLE=Arne Domnerus,Bengt Hallberg,Lars Erstrand,Georg Riedel,Egil Johansen - Jazz at the Pawnshop
DYEAR=1900
DGENRE=Jazz
TTITLE0=Limehouse Blues
TTITLE1=Confessin' (That I Love You) - I'm Confessin'
TTITLE2=High Life
TTITLE3=Jeep's Blues
TTITLE4=Lady, be Good! - Lady, be Good! - Oh, lady, be good!
TTITLE5=Take 5 - Take Five
TTITLE6=Everything Happens to Me
TTITLE7=Barbados
TTITLE8=Stuffy
EXTD=
EXTT0=
EXTT1=
EXTT2=
EXTT3=
EXTT4=
EXTT5=
EXTT6=
EXTT7=
EXTT8=
PLAYORDER=
